<svg width="34" height="30" viewBox="0 0 34 30" fill="none" xmlns="http://www.w3.org/2000/svg">
<path d="M17.9036 9.39382L17.9033 14.4167V14.4168V14.4752C17.9033 14.5917 17.9184 14.7047 17.9466 14.8125L17.8988 15.6302L17.8962 15.6742C17.885 15.8659 17.8103 16.0335 17.6842 16.1598L19.1268 15.2148C19.0445 15.2013 18.9624 15.1722 18.8806 15.1276L18.4844 14.9119V14.4752V14.4168V9.39382M17.9036 9.39382V9.39379L18.194 9.3938L18.4844 9.39382M17.9036 9.39382C17.9036 9.55425 18.0338 9.68423 18.194 9.68423C18.3544 9.68423 18.4844 9.55394 18.4844 9.39382M17.9036 9.39382H18.194H18.4844M12.2833 8.94484L12.2833 8.94487L12.2833 8.94484ZM12.2833 8.94484C12.0703 9.3159 11.5586 9.45443 11.1849 9.2398L12.2833 8.94484ZM10.8522 9.81753L10.8516 9.81717C10.5772 9.65879 10.3794 9.39934 10.2976 9.0953L10.2974 9.09485L10.2974 9.09475L10.297 9.09321C10.2304 8.84269 10.2473 8.5806 10.3431 8.34314V8.14857C10.1722 8.44356 10.1265 8.78777 10.2149 9.1169C10.3028 9.44582 10.5141 9.72076 10.8095 9.89204L10.8522 9.81753ZM18.0957 16.5709L18.1558 16.631L18.0957 16.5709L18.095 16.5716C17.8442 16.8219 17.5077 16.9601 17.1545 16.9601C17.1545 16.9601 17.1545 16.9601 17.1545 16.9601C16.6743 16.9601 16.2532 16.7049 16.0194 16.3229C15.9954 16.3352 15.9711 16.3471 15.9465 16.3585L18.0957 16.5709ZM10.9195 8.4835C10.8377 8.62521 10.8166 8.78668 10.8587 8.94393C10.8587 8.94397 10.8588 8.94402 10.8588 8.94407L10.8588 8.94419L10.859 8.94481C10.9007 9.10117 10.9992 9.23073 11.142 9.31417C11.142 9.3142 11.1421 9.31423 11.1421 9.31426L10.9195 8.4835Z" fill="#4CAF4F" stroke="#4CAF4F" stroke-width="1.33333"/>
<path d="M9.12525 21.7917C8.94667 21.8992 8.71578 21.8412 8.60905 21.6629C8.5021 21.4848 8.56005 21.2536 8.73793 21.1467L9.12525 21.7917ZM4.74685 17.427C4.76149 17.4006 4.77519 17.376 4.78787 17.3531C4.83912 17.2608 4.87382 17.1983 4.88776 17.1732L4.96355 17.2131C4.91673 17.2975 4.87079 17.3802 4.82572 17.4614C4.79932 17.4515 4.77297 17.4401 4.74685 17.427ZM15.1554 19.7211C15.3076 19.6296 15.415 19.485 15.4579 19.3132C15.5007 19.1417 15.4741 18.9634 15.3829 18.8112L15.1554 19.7211Z" fill="#4CAF4F" stroke="#4CAF4F" stroke-width="1.33333"/>
<path d="M20.8527 19.0933C20.7587 19.035 20.6732 18.966 20.5976 18.888L19.8782 18.5117L19.8782 18.5116L19.8381 18.4907C19.7243 18.4311 19.6083 18.4029 19.4965 18.4026L20.8527 19.0933ZM19.1717 17.862C19.1718 17.862 19.1719 17.8619 19.1721 17.8619L19.2275 18.0842L19.2275 18.0842L19.3126 18.4256L19.3125 18.4256L19.1717 17.862ZM23.3872 24.7857C23.387 24.7856 23.3869 24.7855 23.3867 24.7854L23.3872 24.7857ZM18.845 21.1872L18.8464 21.188L18.845 21.1872Z" fill="#4CAF4F" stroke="#4CAF4F" stroke-width="1.33333"/>
</svg>
